# xmcd
#
# Track frame offsets: 
#        150
#        12432
#        27772
#        43682
#        54430
#        71275
#        84660
#        100185
#        113950
#        127852
#
# Disc length: 1860 seconds
#
# Revision: 2
# Processed by: cddbd v1.5PL3 Copyright (c) Steve Scherf et al.
# Submitted via: ExactAudioCopy v0.95a3
#
DISCID=7707420a
DTITLE=Doug Stone - Faith In Me Faith In You
DYEAR=1995
DGENRE=Country
TTITLE0=You Won't Outlive Me
TTITLE1=Faith In Me, Faith In You
TTITLE2=Sometime I Forget
TTITLE3=Born In The Dark
TTITLE4=Down On My Knees
TTITLE5=Enough About Me (Let's Talk About You)
TTITLE6=I Do All My Crying (On The Inside)
TTITLE7=Honky Tonk Mona Lisa
TTITLE8=You're Not That Easy To Forget
TTITLE9=Look Where She Is Today
EXTD=
EXTT0=
EXTT1=
EXTT2=
EXTT3=
EXTT4=
EXTT5=
EXTT6=
EXTT7=
EXTT8=
EXTT9=
PLAYORDER=
